<svg width="24" height="24" fill="none" xmlns="http://www.w3.org/2000/svg"><path fill-rule="evenodd" clip-rule="evenodd" d="M7 10.5V17h9v-6.5C16 8 14 6 11.5 6S7 8 7 10.5zm11 0V16l2 2v1H3v-1l2-2v-5.5c0-3.07 2.13-5.64 5-6.32V3.5a1.5 1.5 0 113 0v.68c2.86.68 5 3.25 5 6.32zm-5.086 10.914A2 2 0 019.5 20h4a2 2 0 01-.586 1.414z" fill="#fff"/><g clip-path="url(#clip0)"><rect x="-1" y="-1" width="12" height="12" rx="5" fill="#FF5E5E" stroke="#4267B2" stroke-width="2"/></g><defs><clipPath id="clip0"><path fill="#fff" d="M0 0h24v24H0z"/></clipPath></defs></svg>