<svg width="24" height="24" fill="none" xmlns="http://www.w3.org/2000/svg"><path fill-rule="evenodd" clip-rule="evenodd" d="M14 2h-4c-1.11 0-2 .89-2 2v2H4c-1.11 0-2 .89-2 2v11a2 2 0 002 2h7.81c-.55-.58-1-1.25-1.31-2H4V8h16v3c.8.54 1.5 1.23 2 2.03V8a2 2 0 00-2-2h-4V4a2 2 0 00-2-2zm0 2v2h-4V4h4zm9.39 18l-3.08-3.1c.44-.69.69-1.52.69-2.4 0-2.5-2-4.5-4.5-4.5S12 14 12 16.5s2 4.5 4.5 4.5c.87 0 1.69-.25 2.38-.68L22 23.39 23.39 22zm-5.122-3.732a2.5 2.5 0 11-3.536-3.537 2.5 2.5 0 013.536 3.537z" fill="#fff"/></svg>