<svg width="24" height="25" fill="none" xmlns="http://www.w3.org/2000/svg"><g clip-path="url(#clip0)" fill="#fff"><path d="M19.287 7.843A8 8 0 117.973 19.157 8 8 0 0119.287 7.843zm-9.9 9.9a6 6 0 108.485-8.485 6 6 0 00-8.485 8.485zM5.145 5.015a5.99 5.99 0 00-1.167 6.823V14.5C0 11.5 1.093 6.238 3.73 3.6 6.368.964 11.5.5 14.51 3.6l-2.54.248a5.99 5.99 0 00-6.824 1.167z"/><path d="M12.7 10.5h1.7v6h-1.7z"/></g><defs><clipPath id="clip0"><path fill="#fff" transform="translate(0 .5)" d="M0 0h24v24H0z"/></clipPath></defs></svg>