<svg width="24" height="24" fill="none" xmlns="http://www.w3.org/2000/svg"><path fill-rule="evenodd" clip-rule="evenodd" d="M9.17 7.76a5.003 5.003 0 000 7.07c.39.39 1.03.39 1.42 0a.973.973 0 000-1.42 2.982 2.982 0 010-4.24l3.53-3.53a2.982 2.982 0 014.24 0 2.982 2.982 0 010 4.24l-.47.48c.28.78.41 1.6.4 2.42l1.49-1.49a5.003 5.003 0 000-7.07 5.003 5.003 0 00-7.07 0L9.17 7.76zm5.66 1.41c-.39-.39-1.03-.39-1.42 0a.973.973 0 000 1.42 2.982 2.982 0 010 4.24l-3.53 3.53a2.982 2.982 0 01-4.24 0 2.982 2.982 0 010-4.24l.47-.47c-.28-.79-.41-1.61-.4-2.43l-1.49 1.49a5.003 5.003 0 000 7.07 5.003 5.003 0 007.07 0l3.54-3.54a5.003 5.003 0 000-7.07z" fill="#fff"/></svg>