<svg width="24" height="24" fill="none" xmlns="http://www.w3.org/2000/svg"><path fill-rule="evenodd" clip-rule="evenodd" d="M8 8c0-2.21 1.79-4 4-4s4 1.79 4 4-1.79 4-4 4-4-1.79-4-4zm4-2.1a2.1 2.1 0 110 4.2 2.1 2.1 0 010-4.2zm0 9c2.97 0 6.1 1.46 6.1 2.1v1.1H5.9V17c0-.64 3.13-2.1 6.1-2.1zm0-1.9c-2.67 0-8 1.34-8 4v2.5a.5.5 0 00.5.5h15a.5.5 0 00.5-.5V17c0-2.66-5.33-4-8-4z" fill="#fff"/><g clip-path="url(#clip0)"><rect x="-1" y="-1" width="12" height="12" rx="5" fill="#FF5E5E" stroke="#4267B2" stroke-width="2"/></g><defs><clipPath id="clip0"><path fill="#fff" d="M0 0h24v24H0z"/></clipPath></defs></svg>