<svg width="24" height="24" fill="none" xmlns="http://www.w3.org/2000/svg"><path fill-rule="evenodd" clip-rule="evenodd" d="M0 17.5V19h3v-1.93c0-1.01.69-1.85 1.71-2.52C2.78 14.78 0 15.76 0 17.5zM24 19v-1.5c0-1.74-2.78-2.72-4.71-2.95 1.02.67 1.71 1.51 1.71 2.52V19h3zM9.525 6.025a3.5 3.5 0 114.95 4.95 3.5 3.5 0 01-4.95-4.95zm3.536 1.414a1.5 1.5 0 10-2.122 2.122 1.5 1.5 0 002.122-2.122zM3.732 8.732A2.5 2.5 0 015.5 8c.36 0 .7.08 1 .22v.28c0 1.2.39 2.36 1.12 3.31-.23.36-.54.66-.91.87-.36.2-.77.32-1.21.32-.44 0-.85-.12-1.21-.32A2.511 2.511 0 013 10.5a2.5 2.5 0 01.732-1.768zM17.5 8.22c.3-.14.64-.22 1-.22a2.5 2.5 0 012.5 2.5c0 .94-.53 1.75-1.29 2.18-.36.2-.77.32-1.21.32a2.482 2.482 0 01-1.72-.7c-.15-.15-.28-.3-.4-.49A5.42 5.42 0 0017.5 8.5v-.28zM5 17.5c0-2.33 4.66-3.5 7-3.5s7 1.17 7 3.5V19H5v-1.5zm11.23-.5c-.99-.5-2.7-1-4.23-1-1.53 0-3.24.5-4.23 1h8.46z" fill="#fff"/></svg>